<svg xmlns="http://www.w3.org/2000/svg" width="54.069" height="54.171" viewBox="0 0 54.069 54.171">
  <path id="Icon_feather-phone" data-name="Icon feather-phone" d="M53.233,40.559v7.552a5.035,5.035,0,0,1-5.488,5.035,49.819,49.819,0,0,1-21.725-7.728,49.088,49.088,0,0,1-15.1-15.1A49.818,49.818,0,0,1,3.188,8.488,5.035,5.035,0,0,1,8.2,3H15.75a5.035,5.035,0,0,1,5.035,4.33A32.323,32.323,0,0,0,22.547,14.4a5.035,5.035,0,0,1-1.133,5.312l-3.2,3.2a40.278,40.278,0,0,0,15.1,15.1l3.2-3.2a5.035,5.035,0,0,1,5.312-1.133A32.323,32.323,0,0,0,48.9,35.449a5.035,5.035,0,0,1,4.33,5.11Z" transform="translate(-1.166 -1)" fill="none" stroke="#224b69" stroke-linecap="round" stroke-linejoin="round" stroke-width="4"/>
</svg>
