<svg xmlns="http://www.w3.org/2000/svg" width="28" height="24" viewBox="0 0 28 24">
  <g id="Group_1389" data-name="Group 1389" transform="translate(-761 -1285.129)">
    <g id="Rectangle_644" data-name="Rectangle 644" transform="translate(761 1285.129)" fill="none" stroke="#64c100" stroke-width="2">
      <rect width="28" height="20" rx="4" stroke="none"/>
      <rect x="1" y="1" width="26" height="18" rx="3" fill="none"/>
    </g>
    <g id="Polygon_31" data-name="Polygon 31" transform="translate(769 1298.129)" fill="#fff">
      <path d="M 9.495099067687988 10.00000476837158 L 3.504899501800537 10.00000476837158 C 2.980759620666504 10.00000476837158 2.722899436950684 9.647274971008301 2.636359453201294 9.495624542236328 C 2.549819469451904 9.343964576721191 2.377329587936401 8.942514419555664 2.643969535827637 8.491274833679199 L 5.639079570770264 3.422634601593018 C 5.901079654693604 2.97923469543457 6.328429698944092 2.931364774703979 6.499999523162842 2.931364774703979 C 6.671569347381592 2.931364774703979 7.09891939163208 2.97923469543457 7.36091947555542 3.422634601593018 L 10.35602951049805 8.491274833679199 C 10.6226692199707 8.942514419555664 10.45017910003662 9.343964576721191 10.36363983154297 9.495624542236328 C 10.277099609375 9.647274971008301 10.01923942565918 10.00000476837158 9.495099067687988 10.00000476837158 Z" stroke="none"/>
      <path d="M 6.49998950958252 3.931354522705078 L 6.499999523162842 3.931365013122559 L 3.504899978637695 8.999994277954102 C 3.504897117614746 8.999998092651367 3.50489616394043 9.000000953674316 3.50489330291748 9.000004768371582 C 3.504895210266113 9.000004768371582 3.504898071289062 9.000004768371582 3.504899978637695 9.000004768371582 L 9.495100021362305 9.000004768371582 C 9.495101928710938 9.000004768371582 9.49510383605957 9.000004768371582 9.49510669708252 9.000004768371582 C 9.495107650756836 9.000003814697266 9.495107650756836 9.000002861022949 9.495109558105469 9.000004768371582 L 6.49998950958252 3.931354522705078 M 6.499999523162842 1.93135929107666 C 7.167394638061523 1.93135929107666 7.834789752960205 2.258874893188477 8.22184944152832 2.913905143737793 L 11.21695899963379 7.982544898986816 C 12.00476932525635 9.315774917602539 11.04369926452637 11.00000476837158 9.495100021362305 11.00000476837158 L 3.504899978637695 11.00000476837158 C 1.956299781799316 11.00000476837158 0.9952297210693359 9.315774917602539 1.783039093017578 7.982544898986816 L 4.778149604797363 2.913905143737793 C 5.165209293365479 2.258874893188477 5.83260440826416 1.93135929107666 6.499999523162842 1.93135929107666 Z" stroke="none" fill="#64c100"/>
    </g>
  </g>
</svg>
