<svg xmlns="http://www.w3.org/2000/svg" xmlns:xlink="http://www.w3.org/1999/xlink" width="26.998" height="26.996" viewBox="0 0 26.998 26.996">
  <defs>
    <clipPath id="clip-path">
      <rect width="26.998" height="26.996" fill="none"/>
    </clipPath>
  </defs>
  <g id="money-bag" clip-path="url(#clip-path)">
    <g id="money-bag-2" data-name="money-bag" transform="translate(0 -0.016)">
      <path id="Path_4525" data-name="Path 4525" d="M27,18.028l-.028-7.6a2.312,2.312,0,0,0-2.276-2.277,2.25,2.25,0,0,0-1.63.649,2.2,2.2,0,0,0-.658,1.543l-.193,2.238a12.735,12.735,0,0,0-6-5.888V4.754l1.9-3.933H16.85c-.079,0-.089,0-.27-.177a1.821,1.821,0,0,0-2.751,0c-.181.177-.191.177-.27.177s-.089,0-.27-.177a1.821,1.821,0,0,0-2.751,0c-.181.177-.191.177-.27.177H9.035l1.8,3.925V6.695A12.735,12.735,0,0,0,4.787,12.6l-.195-2.256A2.2,2.2,0,0,0,3.935,8.8,2.253,2.253,0,0,0,2.3,8.155,2.312,2.312,0,0,0,.028,10.433L0,18.028l3.808,6.086-1.265,2.9H8.567l1.452-2.791.017-.045c.021-.056.04-.112.059-.168A9.185,9.185,0,0,0,16.9,24c.02.059.04.118.062.176l.017.045,1.452,2.791h6.023l-1.265-2.9ZM12.414,5.364h2.218V6.418H12.414Zm-.772-3.59c.181-.177.191-.177.27-.177s.089,0,.27.177a1.821,1.821,0,0,0,2.751,0c.181-.177.191-.177.27-.177s.089,0,.27.177a3.177,3.177,0,0,0,.294.262l-.842,1.747h-2.8l-.8-1.737a3.11,3.11,0,0,0,.307-.272Zm-3.071,21.8-.964,1.853H4.958l.633-1.45-4.008-6.4.026-7.139a.723.723,0,0,1,.721-.7.678.678,0,0,1,.494.193.628.628,0,0,1,.188.452v.035l.474,5.5a2.276,2.276,0,0,0-.377.815,2.2,2.2,0,0,0,.282,1.7L5.55,22.077l1.361-.8-2.165-3.66-.015-.025a.633.633,0,0,1-.082-.493.722.722,0,0,1,1.278-.26l2.322,3.9.014.023a3.175,3.175,0,0,1,.309,2.818Zm1.77-1.181a4.764,4.764,0,0,0-.742-2.48L7.276,16.011l-.014-.023a2.238,2.238,0,0,0-1.72-1.022l.029-.09A11.167,11.167,0,0,1,11.785,8H15.26a11.169,11.169,0,0,1,6.183,6.9l.021.065a2.238,2.238,0,0,0-1.727,1.023L17.4,19.917a4.763,4.763,0,0,0-.742,2.469,7.615,7.615,0,0,1-6.315.011Zm9.049,3.034-.964-1.853a3.175,3.175,0,0,1,.309-2.818l2.337-3.926a.723.723,0,0,1,1.278.26.633.633,0,0,1-.082.493l-2.181,3.685,1.361.8,2.158-3.648a2.2,2.2,0,0,0,.282-1.7,2.276,2.276,0,0,0-.377-.815l.474-5.5v-.035a.628.628,0,0,1,.188-.452.682.682,0,0,1,.494-.193.723.723,0,0,1,.721.7l.026,7.139-4.008,6.4.633,1.45Z" fill="#64c100"/>
      <path id="Path_4526" data-name="Path 4526" d="M210.854,218.157c0-.188.172-.344.712-.344a3.38,3.38,0,0,1,1.526.407l.556-1.339a4.089,4.089,0,0,0-1.589-.454v-.838h-1.1v.853c-1.284.18-1.926.924-1.926,1.808,0,2.043,3.029,1.487,3.029,2.176,0,.188-.188.3-.712.3a3.76,3.76,0,0,1-1.808-.5l-.595,1.346a4.607,4.607,0,0,0,2.012.548v.83h1.1v-.869c1.213-.211,1.824-.947,1.824-1.793C213.883,218.267,210.854,218.815,210.854,218.157Z" transform="translate(-197.926 -204.207)" fill="#64c100"/>
    </g>
  </g>
</svg>
