<svg xmlns="http://www.w3.org/2000/svg" xmlns:xlink="http://www.w3.org/1999/xlink" width="111" height="135" viewBox="0 0 111 135">
  <defs>
    <clipPath id="clip-path">
      <rect width="111" height="135" fill="none"/>
    </clipPath>
  </defs>
  <g id="Repeat_Grid_4" data-name="Repeat Grid 4" opacity="0.26" clip-path="url(#clip-path)">
    <g transform="translate(-1232 -820)">
      <circle id="Ellipse_83" data-name="Ellipse 83" cx="6" cy="6" r="6" transform="translate(1232 820)" fill="#38d8a2"/>
    </g>
    <g transform="translate(-1208 -820)">
      <circle id="Ellipse_83-2" data-name="Ellipse 83" cx="6" cy="6" r="6" transform="translate(1232 820)" fill="#38d8a2"/>
    </g>
    <g transform="translate(-1184 -820)">
      <circle id="Ellipse_83-3" data-name="Ellipse 83" cx="6" cy="6" r="6" transform="translate(1232 820)" fill="#38d8a2"/>
    </g>
    <g transform="translate(-1160 -820)">
      <circle id="Ellipse_83-4" data-name="Ellipse 83" cx="6" cy="6" r="6" transform="translate(1232 820)" fill="#38d8a2"/>
    </g>
    <g transform="translate(-1136 -820)">
      <circle id="Ellipse_83-5" data-name="Ellipse 83" cx="6" cy="6" r="6" transform="translate(1232 820)" fill="#38d8a2"/>
    </g>
    <g transform="translate(-1232 -792)">
      <circle id="Ellipse_83-6" data-name="Ellipse 83" cx="6" cy="6" r="6" transform="translate(1232 820)" fill="#38d8a2"/>
    </g>
    <g transform="translate(-1208 -792)">
      <circle id="Ellipse_83-7" data-name="Ellipse 83" cx="6" cy="6" r="6" transform="translate(1232 820)" fill="#38d8a2"/>
    </g>
    <g transform="translate(-1184 -792)">
      <circle id="Ellipse_83-8" data-name="Ellipse 83" cx="6" cy="6" r="6" transform="translate(1232 820)" fill="#38d8a2"/>
    </g>
    <g transform="translate(-1160 -792)">
      <circle id="Ellipse_83-9" data-name="Ellipse 83" cx="6" cy="6" r="6" transform="translate(1232 820)" fill="#38d8a2"/>
    </g>
    <g transform="translate(-1136 -792)">
      <circle id="Ellipse_83-10" data-name="Ellipse 83" cx="6" cy="6" r="6" transform="translate(1232 820)" fill="#38d8a2"/>
    </g>
    <g transform="translate(-1232 -764)">
      <circle id="Ellipse_83-11" data-name="Ellipse 83" cx="6" cy="6" r="6" transform="translate(1232 820)" fill="#38d8a2"/>
    </g>
    <g transform="translate(-1208 -764)">
      <circle id="Ellipse_83-12" data-name="Ellipse 83" cx="6" cy="6" r="6" transform="translate(1232 820)" fill="#38d8a2"/>
    </g>
    <g transform="translate(-1184 -764)">
      <circle id="Ellipse_83-13" data-name="Ellipse 83" cx="6" cy="6" r="6" transform="translate(1232 820)" fill="#38d8a2"/>
    </g>
    <g transform="translate(-1160 -764)">
      <circle id="Ellipse_83-14" data-name="Ellipse 83" cx="6" cy="6" r="6" transform="translate(1232 820)" fill="#38d8a2"/>
    </g>
    <g transform="translate(-1136 -764)">
      <circle id="Ellipse_83-15" data-name="Ellipse 83" cx="6" cy="6" r="6" transform="translate(1232 820)" fill="#38d8a2"/>
    </g>
    <g transform="translate(-1232 -736)">
      <circle id="Ellipse_83-16" data-name="Ellipse 83" cx="6" cy="6" r="6" transform="translate(1232 820)" fill="#38d8a2"/>
    </g>
    <g transform="translate(-1208 -736)">
      <circle id="Ellipse_83-17" data-name="Ellipse 83" cx="6" cy="6" r="6" transform="translate(1232 820)" fill="#38d8a2"/>
    </g>
    <g transform="translate(-1184 -736)">
      <circle id="Ellipse_83-18" data-name="Ellipse 83" cx="6" cy="6" r="6" transform="translate(1232 820)" fill="#38d8a2"/>
    </g>
    <g transform="translate(-1160 -736)">
      <circle id="Ellipse_83-19" data-name="Ellipse 83" cx="6" cy="6" r="6" transform="translate(1232 820)" fill="#38d8a2"/>
    </g>
    <g transform="translate(-1136 -736)">
      <circle id="Ellipse_83-20" data-name="Ellipse 83" cx="6" cy="6" r="6" transform="translate(1232 820)" fill="#38d8a2"/>
    </g>
    <g transform="translate(-1232 -708)">
      <circle id="Ellipse_83-21" data-name="Ellipse 83" cx="6" cy="6" r="6" transform="translate(1232 820)" fill="#38d8a2"/>
    </g>
    <g transform="translate(-1208 -708)">
      <circle id="Ellipse_83-22" data-name="Ellipse 83" cx="6" cy="6" r="6" transform="translate(1232 820)" fill="#38d8a2"/>
    </g>
    <g transform="translate(-1184 -708)">
      <circle id="Ellipse_83-23" data-name="Ellipse 83" cx="6" cy="6" r="6" transform="translate(1232 820)" fill="#38d8a2"/>
    </g>
    <g transform="translate(-1160 -708)">
      <circle id="Ellipse_83-24" data-name="Ellipse 83" cx="6" cy="6" r="6" transform="translate(1232 820)" fill="#38d8a2"/>
    </g>
    <g transform="translate(-1136 -708)">
      <circle id="Ellipse_83-25" data-name="Ellipse 83" cx="6" cy="6" r="6" transform="translate(1232 820)" fill="#38d8a2"/>
    </g>
  </g>
</svg>
