<?xml version="1.0"?>
<svg xmlns="http://www.w3.org/2000/svg" xmlns:xlink="http://www.w3.org/1999/xlink" xmlns:svgjs="http://svgjs.com/svgjs" version="1.1" width="512" height="512" x="0" y="0" viewBox="0 0 512 512" style="enable-background:new 0 0 512 512" xml:space="preserve" class=""><g><path xmlns="http://www.w3.org/2000/svg" d="m456 48h-400a46 46 0 0 0 -46 46v324a46 46 0 0 0 46 46h400a46 46 0 0 0 46-46v-324a46 46 0 0 0 -46-46zm34 369.818a34.194 34.194 0 0 1 -34 34.182h-400a34.194 34.194 0 0 1 -34-34.182v-291.818h27a6 6 0 0 0 0-12h-27v-19.818a34.194 34.194 0 0 1 34-34.182h112v54h-79a6 6 0 0 0 0 12h401zm0-303.818h-310v-54h276a34.194 34.194 0 0 1 34 34.182z" fill="#af6f00" data-original="#000000" style=""/><path xmlns="http://www.w3.org/2000/svg" d="m70.546 87.161a8.182 8.182 0 1 0 -8.183 8.182 8.192 8.192 0 0 0 8.183-8.182z" fill="#af6f00" data-original="#000000" style=""/><path xmlns="http://www.w3.org/2000/svg" d="m95.091 95.343a8.182 8.182 0 1 0 -8.182-8.182 8.19 8.19 0 0 0 8.182 8.182z" fill="#af6f00" data-original="#000000" style=""/><path xmlns="http://www.w3.org/2000/svg" d="m127.818 95.343a8.182 8.182 0 1 0 -8.181-8.182 8.191 8.191 0 0 0 8.181 8.182z" fill="#af6f00" data-original="#000000" style=""/><path xmlns="http://www.w3.org/2000/svg" d="m44 232.484a6 6 0 0 0 -6 6v113.493a6 6 0 0 0 12 0v-113.493a6 6 0 0 0 -6-6z" fill="#af6f00" data-original="#000000" style=""/><path xmlns="http://www.w3.org/2000/svg" d="m44 169.748a6 6 0 0 0 -6 6v40.614a6 6 0 0 0 12 0v-40.614a6 6 0 0 0 -6-6z" fill="#af6f00" data-original="#000000" style=""/><path xmlns="http://www.w3.org/2000/svg" d="m44 141.748a6 6 0 0 0 -6 6v5.614a6 6 0 0 0 12 0v-5.614a6 6 0 0 0 -6-6z" fill="#af6f00" data-original="#000000" style=""/><path xmlns="http://www.w3.org/2000/svg" d="m241.207 373h181.586a25.207 25.207 0 0 0 25.207-25.207v-118.586a25.207 25.207 0 0 0 -25.207-25.207h-181.586a25.208 25.208 0 0 0 -25.207 25.207v118.586a25.208 25.208 0 0 0 25.207 25.207zm181.666-13h-181.5a12.971 12.971 0 0 1 -10.694-5.242l62.869-59.025 21.076 16.274a29.948 29.948 0 0 0 36.921.035l20.937-16.426 61.124 59.09a12.978 12.978 0 0 1 -10.733 5.294zm13.127-19.362-54.074-52.491 54.074-42.441zm-208-111.761a13.086 13.086 0 0 1 13.371-12.877h181.5a12.876 12.876 0 0 1 13.129 12.877v1.575l-91.891 72.153a18.088 18.088 0 0 1 -22.241-.023l-93.868-72.157zm0 16.687 55.747 42.881-55.747 52.448z" fill="#af6f00" data-original="#000000" style=""/><path xmlns="http://www.w3.org/2000/svg" d="m71.069 244h-1.149a6 6 0 0 0 0 12h1.149a6 6 0 1 0 0-12z" fill="#af6f00" data-original="#000000" style=""/><path xmlns="http://www.w3.org/2000/svg" d="m85.607 250a6 6 0 0 0 6 6h.753a6 6 0 1 0 0-12h-.753a6 6 0 0 0 -6 6z" fill="#af6f00" data-original="#000000" style=""/><path xmlns="http://www.w3.org/2000/svg" d="m121.786 256h.353a6 6 0 1 0 0-12h-.353a6 6 0 0 0 0 12z" fill="#af6f00" data-original="#000000" style=""/><path xmlns="http://www.w3.org/2000/svg" d="m144.713 256h26.8l-15.8 15.882a6.043 6.043 0 0 0 4.242 10.307 5.971 5.971 0 0 0 4.242-1.747l26.039-26.034a5.994 5.994 0 0 0 0-8.482l-26.036-26.038a6 6 0 0 0 -8.484 0 5.9 5.9 0 0 0 0 8.4l15.795 15.712h-26.8a6 6 0 1 0 0 12z" fill="#af6f00" data-original="#000000" style=""/><path xmlns="http://www.w3.org/2000/svg" d="m144.713 332h26.8l-15.8 15.793a6 6 0 1 0 8.484 8.483l26.039-26.039a6 6 0 0 0 0-8.486l-26.036-26.04a6 6 0 0 0 -8.486 8.489l15.8 15.8h-26.8a6 6 0 1 0 0 12z" fill="#af6f00" data-original="#000000" style=""/><path xmlns="http://www.w3.org/2000/svg" d="m71.069 320h-1.149a6 6 0 0 0 0 12h1.149a6 6 0 1 0 0-12z" fill="#af6f00" data-original="#000000" style=""/><path xmlns="http://www.w3.org/2000/svg" d="m92.36 320h-.753a6 6 0 1 0 0 12h.753a6 6 0 1 0 0-12z" fill="#af6f00" data-original="#000000" style=""/><path xmlns="http://www.w3.org/2000/svg" d="m121.786 332h.353a6 6 0 1 0 0-12h-.353a6 6 0 0 0 0 12z" fill="#af6f00" data-original="#000000" style=""/></g></svg>
